<svg id="morph" viewBox="0 0 900 600" width="900" height="600" xmlns="http://www.w3.org/2000/svg" xmlns:xlink="http://www.w3.org/1999/xlink" version="1.1">
    <path id="first" d="M128.9 -133.4C174.4 -83.4 223.7 -41.7 222.9 -0.8C222.1 40.1 171.1 80.1 125.6 127.3C80.1 174.5 40.1 228.7 -9.4 238.2C-58.9 247.6 -117.9 212.2 -146.4 165C-174.9 117.9 -172.9 58.9 -161.1 11.8C-149.4 -35.4 -127.7 -70.7 -99.2 -120.7C-70.7 -170.7 -35.4 -235.4 3.2 -238.5C41.7 -241.7 83.4 -183.4 128.9 -133.4" fill="#66A182"></path>
    <path id="second" d="M171.4 -149.3C220.8 -122.1 258.4 -61 255.4 -2.9C252.5 55.2 209 110.3 159.6 135.3C110.3 160.3 55.2 155.2 -7.8 162.9C-70.7 170.7 -141.4 191.4 -172.1 166.4C-202.8 141.4 -193.4 70.7 -187.8 5.5C-182.3 -59.6 -180.6 -119.3 -149.9 -146.4C-119.3 -173.6 -59.6 -168.3 0.7 -169C61 -169.7 122.1 -176.4 171.4 -149.3" fill="#66A182"></path>
</svg>