<svg id="visual" viewBox="0 0 900 600" width="900" height="600" xmlns="http://www.w3.org/2000/svg" xmlns:xlink="http://www.w3.org/1999/xlink" version="1.1"><rect x="0" y="0" width="900" height="600" fill="#1C2222"></rect><defs><linearGradient id="grad1_0" x1="33.3%" y1="0%" x2="100%" y2="100%"><stop offset="20%" stop-color="#1c2222" stop-opacity="1"></stop><stop offset="80%" stop-color="#1c2222" stop-opacity="1"></stop></linearGradient></defs><defs><linearGradient id="grad2_0" x1="0%" y1="0%" x2="66.7%" y2="100%"><stop offset="20%" stop-color="#1c2222" stop-opacity="1"></stop><stop offset="80%" stop-color="#1c2222" stop-opacity="1"></stop></linearGradient></defs><g transform="translate(900, 0)"><path d="M0 436C-45 426.4 -90.1 416.8 -130.1 400.4C-170.1 384 -205.2 360.7 -247.5 340.6C-289.7 320.5 -339.3 303.6 -371.9 270.2C-404.5 236.8 -420.3 186.8 -428 139.1C-435.7 91.3 -435.3 45.6 -435 0L0 0Z" fill="#A5BE00"></path></g><g transform="translate(0, 600)"><path d="M0 -436C47.1 -429.4 94.2 -422.8 130.7 -402.3C167.2 -381.8 193.2 -347.4 238.1 -327.7C282.9 -307.9 346.5 -303 371.9 -270.2C397.3 -237.5 384.4 -177 391.8 -127.3C399.3 -77.7 427.2 -38.8 455 0L0 0Z" fill="#A5BE00"></path></g></svg>