<svg id="visual" viewBox="0 0 900 600" width="900" height="600" xmlns="http://www.w3.org/2000/svg" xmlns:xlink="http://www.w3.org/1999/xlink" version="1.1"><path d="M0 176L12.5 181.5C25 187 50 198 75 203.8C100 209.7 125 210.3 150 215.3C175 220.3 200 229.7 225 226.3C250 223 275 207 300 198.7C325 190.3 350 189.7 375 194.2C400 198.7 425 208.3 450 212.3C475 216.3 500 214.7 525 208C550 201.3 575 189.7 600 186.7C625 183.7 650 189.3 675 190.5C700 191.7 725 188.3 750 188.7C775 189 800 193 825 197.2C850 201.3 875 205.7 887.5 207.8L900 210L900 0L887.5 0C875 0 850 0 825 0C800 0 775 0 750 0C725 0 700 0 675 0C650 0 625 0 600 0C575 0 550 0 525 0C500 0 475 0 450 0C425 0 400 0 375 0C350 0 325 0 300 0C275 0 250 0 225 0C200 0 175 0 150 0C125 0 100 0 75 0C50 0 25 0 12.5 0L0 0Z" fill="#86d15c"></path><path d="M0 141L12.5 145.8C25 150.7 50 160.3 75 168.7C100 177 125 184 150 182.2C175 180.3 200 169.7 225 162C250 154.3 275 149.7 300 146.8C325 144 350 143 375 142.7C400 142.3 425 142.7 450 143C475 143.3 500 143.7 525 143.2C550 142.7 575 141.3 600 142C625 142.7 650 145.3 675 151C700 156.7 725 165.3 750 165.7C775 166 800 158 825 162C850 166 875 182 887.5 190L900 198L900 0L887.5 0C875 0 850 0 825 0C800 0 775 0 750 0C725 0 700 0 675 0C650 0 625 0 600 0C575 0 550 0 525 0C500 0 475 0 450 0C425 0 400 0 375 0C350 0 325 0 300 0C275 0 250 0 225 0C200 0 175 0 150 0C125 0 100 0 75 0C50 0 25 0 12.5 0L0 0Z" fill="#76c66b"></path><path d="M0 149L12.5 145.8C25 142.7 50 136.3 75 128.8C100 121.3 125 112.7 150 111.7C175 110.7 200 117.3 225 124C250 130.7 275 137.3 300 139.8C325 142.3 350 140.7 375 135.7C400 130.7 425 122.3 450 124.5C475 126.7 500 139.3 525 143.2C550 147 575 142 600 136.5C625 131 650 125 675 122.2C700 119.3 725 119.7 750 125.5C775 131.3 800 142.7 825 147.3C850 152 875 150 887.5 149L900 148L900 0L887.5 0C875 0 850 0 825 0C800 0 775 0 750 0C725 0 700 0 675 0C650 0 625 0 600 0C575 0 550 0 525 0C500 0 475 0 450 0C425 0 400 0 375 0C350 0 325 0 300 0C275 0 250 0 225 0C200 0 175 0 150 0C125 0 100 0 75 0C50 0 25 0 12.5 0L0 0Z" fill="#6bba76"></path><path d="M0 84L12.5 84.3C25 84.7 50 85.3 75 88.7C100 92 125 98 150 97.2C175 96.3 200 88.7 225 84.2C250 79.7 275 78.3 300 75.8C325 73.3 350 69.7 375 70.3C400 71 425 76 450 79.7C475 83.3 500 85.7 525 83.7C550 81.7 575 75.3 600 74.5C625 73.7 650 78.3 675 82.7C700 87 725 91 750 94.5C775 98 800 101 825 96.7C850 92.3 875 80.7 887.5 74.8L900 69L900 0L887.5 0C875 0 850 0 825 0C800 0 775 0 750 0C725 0 700 0 675 0C650 0 625 0 600 0C575 0 550 0 525 0C500 0 475 0 450 0C425 0 400 0 375 0C350 0 325 0 300 0C275 0 250 0 225 0C200 0 175 0 150 0C125 0 100 0 75 0C50 0 25 0 12.5 0L0 0Z" fill="#66ae7e"></path><path d="M0 29L12.5 30.7C25 32.3 50 35.7 75 36C100 36.3 125 33.7 150 34.2C175 34.7 200 38.3 225 42.7C250 47 275 52 300 52.7C325 53.3 350 49.7 375 49.5C400 49.3 425 52.7 450 50.7C475 48.7 500 41.3 525 37.5C550 33.7 575 33.3 600 35.5C625 37.7 650 42.3 675 42.2C700 42 725 37 750 39.7C775 42.3 800 52.7 825 58.2C850 63.7 875 64.3 887.5 64.7L900 65L900 0L887.5 0C875 0 850 0 825 0C800 0 775 0 750 0C725 0 700 0 675 0C650 0 625 0 600 0C575 0 550 0 525 0C500 0 475 0 450 0C425 0 400 0 375 0C350 0 325 0 300 0C275 0 250 0 225 0C200 0 175 0 150 0C125 0 100 0 75 0C50 0 25 0 12.5 0L0 0Z" fill="#66a182"></path></svg>