<svg id="visual" viewBox="0 0 900 600" width="900" height="600" xmlns="http://www.w3.org/2000/svg" xmlns:xlink="http://www.w3.org/1999/xlink" version="1.1"><rect x="0" y="0" width="900" height="600" fill="#c6d3d3"></rect><path d="M0 403L21.5 395.2C43 387.3 86 371.7 128.8 372.5C171.7 373.3 214.3 390.7 257.2 393.5C300 396.3 343 384.7 385.8 379.3C428.7 374 471.3 375 514.2 372.7C557 370.3 600 364.7 642.8 362.7C685.7 360.7 728.3 362.3 771.2 372.8C814 383.3 857 402.7 878.5 412.3L900 422L900 601L878.5 601C857 601 814 601 771.2 601C728.3 601 685.7 601 642.8 601C600 601 557 601 514.2 601C471.3 601 428.7 601 385.8 601C343 601 300 601 257.2 601C214.3 601 171.7 601 128.8 601C86 601 43 601 21.5 601L0 601Z" fill="#679436"></path><path d="M0 452L21.5 451C43 450 86 448 128.8 451.3C171.7 454.7 214.3 463.3 257.2 468.2C300 473 343 474 385.8 468.5C428.7 463 471.3 451 514.2 439.5C557 428 600 417 642.8 421.3C685.7 425.7 728.3 445.3 771.2 455C814 464.7 857 464.3 878.5 464.2L900 464L900 601L878.5 601C857 601 814 601 771.2 601C728.3 601 685.7 601 642.8 601C600 601 557 601 514.2 601C471.3 601 428.7 601 385.8 601C343 601 300 601 257.2 601C214.3 601 171.7 601 128.8 601C86 601 43 601 21.5 601L0 601Z" fill="#749f30"></path><path d="M0 484L21.5 478.2C43 472.3 86 460.7 128.8 458.8C171.7 457 214.3 465 257.2 470.8C300 476.7 343 480.3 385.8 485.8C428.7 491.3 471.3 498.7 514.2 493.8C557 489 600 472 642.8 471.5C685.7 471 728.3 487 771.2 494C814 501 857 499 878.5 498L900 497L900 601L878.5 601C857 601 814 601 771.2 601C728.3 601 685.7 601 642.8 601C600 601 557 601 514.2 601C471.3 601 428.7 601 385.8 601C343 601 300 601 257.2 601C214.3 601 171.7 601 128.8 601C86 601 43 601 21.5 601L0 601Z" fill="#83aa27"></path><path d="M0 515L21.5 513C43 511 86 507 128.8 505C171.7 503 214.3 503 257.2 502.8C300 502.7 343 502.3 385.8 500.3C428.7 498.3 471.3 494.7 514.2 500C557 505.3 600 519.7 642.8 525.3C685.7 531 728.3 528 771.2 529C814 530 857 535 878.5 537.5L900 540L900 601L878.5 601C857 601 814 601 771.2 601C728.3 601 685.7 601 642.8 601C600 601 557 601 514.2 601C471.3 601 428.7 601 385.8 601C343 601 300 601 257.2 601C214.3 601 171.7 601 128.8 601C86 601 43 601 21.5 601L0 601Z" fill="#93b41a"></path><path d="M0 536L21.5 534.7C43 533.3 86 530.7 128.8 534.7C171.7 538.7 214.3 549.3 257.2 551.7C300 554 343 548 385.8 544C428.7 540 471.3 538 514.2 540C557 542 600 548 642.8 553C685.7 558 728.3 562 771.2 557.2C814 552.3 857 538.7 878.5 531.8L900 525L900 601L878.5 601C857 601 814 601 771.2 601C728.3 601 685.7 601 642.8 601C600 601 557 601 514.2 601C471.3 601 428.7 601 385.8 601C343 601 300 601 257.2 601C214.3 601 171.7 601 128.8 601C86 601 43 601 21.5 601L0 601Z" fill="#a5be00"></path></svg>