<svg id="visual" viewBox="0 0 900 600" width="900" height="600" xmlns="http://www.w3.org/2000/svg" xmlns:xlink="http://www.w3.org/1999/xlink" version="1.1"><rect x="0" y="0" width="900" height="600" fill="#1C2222"></rect><path d="M0 298L30 314.8C60 331.7 120 365.3 180 382.5C240 399.7 300 400.3 360 385.2C420 370 480 339 540 326C600 313 660 318 720 321.7C780 325.3 840 327.7 870 328.8L900 330L900 601L870 601C840 601 780 601 720 601C660 601 600 601 540 601C480 601 420 601 360 601C300 601 240 601 180 601C120 601 60 601 30 601L0 601Z" fill="#a5be00"></path><path d="M0 416L30 415.3C60 414.7 120 413.3 180 403.8C240 394.3 300 376.7 360 375.2C420 373.7 480 388.3 540 392.5C600 396.7 660 390.3 720 388C780 385.7 840 387.3 870 388.2L900 389L900 601L870 601C840 601 780 601 720 601C660 601 600 601 540 601C480 601 420 601 360 601C300 601 240 601 180 601C120 601 60 601 30 601L0 601Z" fill="#93b41a"></path><path d="M0 476L30 471.7C60 467.3 120 458.7 180 446.5C240 434.3 300 418.7 360 412.8C420 407 480 411 540 413.2C600 415.3 660 415.7 720 423C780 430.3 840 444.7 870 451.8L900 459L900 601L870 601C840 601 780 601 720 601C660 601 600 601 540 601C480 601 420 601 360 601C300 601 240 601 180 601C120 601 60 601 30 601L0 601Z" fill="#83aa27"></path><path d="M0 482L30 485.7C60 489.3 120 496.7 180 504C240 511.3 300 518.7 360 512.5C420 506.3 480 486.7 540 485.2C600 483.7 660 500.3 720 507C780 513.7 840 510.3 870 508.7L900 507L900 601L870 601C840 601 780 601 720 601C660 601 600 601 540 601C480 601 420 601 360 601C300 601 240 601 180 601C120 601 60 601 30 601L0 601Z" fill="#749f30"></path><path d="M0 540L30 536.7C60 533.3 120 526.7 180 523.3C240 520 300 520 360 523C420 526 480 532 540 533.3C600 534.7 660 531.3 720 533.8C780 536.3 840 544.7 870 548.8L900 553L900 601L870 601C840 601 780 601 720 601C660 601 600 601 540 601C480 601 420 601 360 601C300 601 240 601 180 601C120 601 60 601 30 601L0 601Z" fill="#679436"></path></svg>