<svg id="visual" viewBox="0 0 900 600" width="900" height="600" xmlns="http://www.w3.org/2000/svg" xmlns:xlink="http://www.w3.org/1999/xlink" version="1.1"><path d="M0 190L12.5 191.7C25 193.3 50 196.7 75 203.8C100 211 125 222 150 222.7C175 223.3 200 213.7 225 209.7C250 205.7 275 207.3 300 208.2C325 209 350 209 375 211C400 213 425 217 450 216.5C475 216 500 211 525 208.2C550 205.3 575 204.7 600 199.3C625 194 650 184 675 187.3C700 190.7 725 207.3 750 216.8C775 226.3 800 228.7 825 227.3C850 226 875 221 887.5 218.5L900 216L900 0L887.5 0C875 0 850 0 825 0C800 0 775 0 750 0C725 0 700 0 675 0C650 0 625 0 600 0C575 0 550 0 525 0C500 0 475 0 450 0C425 0 400 0 375 0C350 0 325 0 300 0C275 0 250 0 225 0C200 0 175 0 150 0C125 0 100 0 75 0C50 0 25 0 12.5 0L0 0Z" fill="#dd00ff"></path><path d="M0 171L12.5 175.3C25 179.7 50 188.3 75 185.2C100 182 125 167 150 157.8C175 148.7 200 145.3 225 152.8C250 160.3 275 178.7 300 181.2C325 183.7 350 170.3 375 167.2C400 164 425 171 450 176.3C475 181.7 500 185.3 525 181.7C550 178 575 167 600 160.2C625 153.3 650 150.7 675 150.5C700 150.3 725 152.7 750 152.8C775 153 800 151 825 149.2C850 147.3 875 145.7 887.5 144.8L900 144L900 0L887.5 0C875 0 850 0 825 0C800 0 775 0 750 0C725 0 700 0 675 0C650 0 625 0 600 0C575 0 550 0 525 0C500 0 475 0 450 0C425 0 400 0 375 0C350 0 325 0 300 0C275 0 250 0 225 0C200 0 175 0 150 0C125 0 100 0 75 0C50 0 25 0 12.5 0L0 0Z" fill="#c10cdd"></path><path d="M0 138L12.5 133.8C25 129.7 50 121.3 75 120.2C100 119 125 125 150 129.7C175 134.3 200 137.7 225 139.3C250 141 275 141 300 139.8C325 138.7 350 136.3 375 136.8C400 137.3 425 140.7 450 135.7C475 130.7 500 117.3 525 118.8C550 120.3 575 136.7 600 139.8C625 143 650 133 675 133.3C700 133.7 725 144.3 750 147.2C775 150 800 145 825 140.5C850 136 875 132 887.5 130L900 128L900 0L887.5 0C875 0 850 0 825 0C800 0 775 0 750 0C725 0 700 0 675 0C650 0 625 0 600 0C575 0 550 0 525 0C500 0 475 0 450 0C425 0 400 0 375 0C350 0 325 0 300 0C275 0 250 0 225 0C200 0 175 0 150 0C125 0 100 0 75 0C50 0 25 0 12.5 0L0 0Z" fill="#a512bc"></path><path d="M0 73L12.5 72.5C25 72 50 71 75 71.7C100 72.3 125 74.7 150 79.3C175 84 200 91 225 90C250 89 275 80 300 82.3C325 84.7 350 98.3 375 104.3C400 110.3 425 108.7 450 108C475 107.3 500 107.7 525 102.5C550 97.3 575 86.7 600 85C625 83.3 650 90.7 675 91.2C700 91.7 725 85.3 750 82.2C775 79 800 79 825 78C850 77 875 75 887.5 74L900 73L900 0L887.5 0C875 0 850 0 825 0C800 0 775 0 750 0C725 0 700 0 675 0C650 0 625 0 600 0C575 0 550 0 525 0C500 0 475 0 450 0C425 0 400 0 375 0C350 0 325 0 300 0C275 0 250 0 225 0C200 0 175 0 150 0C125 0 100 0 75 0C50 0 25 0 12.5 0L0 0Z" fill="#8a159c"></path><path d="M0 61L12.5 58.8C25 56.7 50 52.3 75 49.2C100 46 125 44 150 41.7C175 39.3 200 36.7 225 36.7C250 36.7 275 39.3 300 44.7C325 50 350 58 375 61.5C400 65 425 64 450 59.5C475 55 500 47 525 44C550 41 575 43 600 43.3C625 43.7 650 42.3 675 44.5C700 46.7 725 52.3 750 55.5C775 58.7 800 59.3 825 54.7C850 50 875 40 887.5 35L900 30L900 0L887.5 0C875 0 850 0 825 0C800 0 775 0 750 0C725 0 700 0 675 0C650 0 625 0 600 0C575 0 550 0 525 0C500 0 475 0 450 0C425 0 400 0 375 0C350 0 325 0 300 0C275 0 250 0 225 0C200 0 175 0 150 0C125 0 100 0 75 0C50 0 25 0 12.5 0L0 0Z" fill="#70157e"></path></svg>