<svg id="visual" viewBox="0 0 900 600" width="900" height="600" xmlns="http://www.w3.org/2000/svg" xmlns:xlink="http://www.w3.org/1999/xlink" version="1.1"><path d="M271 0L279.3 4.3C287.7 8.7 304.3 17.3 304.8 26C305.3 34.7 289.7 43.3 286.3 52C283 60.7 292 69.3 295.7 78C299.3 86.7 297.7 95.3 291.3 104C285 112.7 274 121.3 269.7 130.2C265.3 139 267.7 148 276.3 156.8C285 165.7 300 174.3 303.2 183C306.3 191.7 297.7 200.3 300 209C302.3 217.7 315.7 226.3 320.3 235C325 243.7 321 252.3 312.8 261C304.7 269.7 292.3 278.3 301 287C309.7 295.7 339.3 304.3 338.5 313C337.7 321.7 306.3 330.3 305 339C303.7 347.7 332.3 356.3 339.5 365C346.7 373.7 332.3 382.3 330.5 391C328.7 399.7 339.3 408.3 338.3 417C337.3 425.7 324.7 434.3 317.2 443.2C309.7 452 307.3 461 304 469.8C300.7 478.7 296.3 487.3 289.7 496C283 504.7 274 513.3 278 522C282 530.7 299 539.3 314 548C329 556.7 342 565.3 333.7 574C325.3 582.7 295.7 591.3 280.8 595.7L266 600L0 600L0 595.7C0 591.3 0 582.7 0 574C0 565.3 0 556.7 0 548C0 539.3 0 530.7 0 522C0 513.3 0 504.7 0 496C0 487.3 0 478.7 0 469.8C0 461 0 452 0 443.2C0 434.3 0 425.7 0 417C0 408.3 0 399.7 0 391C0 382.3 0 373.7 0 365C0 356.3 0 347.7 0 339C0 330.3 0 321.7 0 313C0 304.3 0 295.7 0 287C0 278.3 0 269.7 0 261C0 252.3 0 243.7 0 235C0 226.3 0 217.7 0 209C0 200.3 0 191.7 0 183C0 174.3 0 165.7 0 156.8C0 148 0 139 0 130.2C0 121.3 0 112.7 0 104C0 95.3 0 86.7 0 78C0 69.3 0 60.7 0 52C0 43.3 0 34.7 0 26C0 17.3 0 8.7 0 4.3L0 0Z" fill="#66a182"></path><path d="M300 0L295.3 4.3C290.7 8.7 281.3 17.3 277.3 26C273.3 34.7 274.7 43.3 270.7 52C266.7 60.7 257.3 69.3 254.7 78C252 86.7 256 95.3 259.7 104C263.3 112.7 266.7 121.3 260 130.2C253.3 139 236.7 148 240.8 156.8C245 165.7 270 174.3 282.5 183C295 191.7 295 200.3 284.5 209C274 217.7 253 226.3 239 235C225 243.7 218 252.3 222.2 261C226.3 269.7 241.7 278.3 250.8 287C260 295.7 263 304.3 259.7 313C256.3 321.7 246.7 330.3 249.5 339C252.3 347.7 267.7 356.3 270 365C272.3 373.7 261.7 382.3 249.8 391C238 399.7 225 408.3 232.2 417C239.3 425.7 266.7 434.3 267.2 443.2C267.7 452 241.3 461 231.2 469.8C221 478.7 227 487.3 238.8 496C250.7 504.7 268.3 513.3 272.2 522C276 530.7 266 539.3 254.2 548C242.3 556.7 228.7 565.3 226 574C223.3 582.7 231.7 591.3 235.8 595.7L240 600L0 600L0 595.7C0 591.3 0 582.7 0 574C0 565.3 0 556.7 0 548C0 539.3 0 530.7 0 522C0 513.3 0 504.7 0 496C0 487.3 0 478.7 0 469.8C0 461 0 452 0 443.2C0 434.3 0 425.7 0 417C0 408.3 0 399.7 0 391C0 382.3 0 373.7 0 365C0 356.3 0 347.7 0 339C0 330.3 0 321.7 0 313C0 304.3 0 295.7 0 287C0 278.3 0 269.7 0 261C0 252.3 0 243.7 0 235C0 226.3 0 217.7 0 209C0 200.3 0 191.7 0 183C0 174.3 0 165.7 0 156.8C0 148 0 139 0 130.2C0 121.3 0 112.7 0 104C0 95.3 0 86.7 0 78C0 69.3 0 60.7 0 52C0 43.3 0 34.7 0 26C0 17.3 0 8.7 0 4.3L0 0Z" fill="#66ae7e"></path><path d="M181 0L179.7 4.3C178.3 8.7 175.7 17.3 172.3 26C169 34.7 165 43.3 167.7 52C170.3 60.7 179.7 69.3 190.7 78C201.7 86.7 214.3 95.3 220.8 104C227.3 112.7 227.7 121.3 220.8 130.2C214 139 200 148 195.7 156.8C191.3 165.7 196.7 174.3 200.7 183C204.7 191.7 207.3 200.3 213.3 209C219.3 217.7 228.7 226.3 231 235C233.3 243.7 228.7 252.3 225 261C221.3 269.7 218.7 278.3 216.8 287C215 295.7 214 304.3 210 313C206 321.7 199 330.3 193.2 339C187.3 347.7 182.7 356.3 187 365C191.3 373.7 204.7 382.3 207 391C209.3 399.7 200.7 408.3 199.3 417C198 425.7 204 434.3 199.3 443.2C194.7 452 179.3 461 178 469.8C176.7 478.7 189.3 487.3 192.5 496C195.7 504.7 189.3 513.3 185.7 522C182 530.7 181 539.3 185.3 548C189.7 556.7 199.3 565.3 208.7 574C218 582.7 227 591.3 231.5 595.7L236 600L0 600L0 595.7C0 591.3 0 582.7 0 574C0 565.3 0 556.7 0 548C0 539.3 0 530.7 0 522C0 513.3 0 504.7 0 496C0 487.3 0 478.7 0 469.8C0 461 0 452 0 443.2C0 434.3 0 425.7 0 417C0 408.3 0 399.7 0 391C0 382.3 0 373.7 0 365C0 356.3 0 347.7 0 339C0 330.3 0 321.7 0 313C0 304.3 0 295.7 0 287C0 278.3 0 269.7 0 261C0 252.3 0 243.7 0 235C0 226.3 0 217.7 0 209C0 200.3 0 191.7 0 183C0 174.3 0 165.7 0 156.8C0 148 0 139 0 130.2C0 121.3 0 112.7 0 104C0 95.3 0 86.7 0 78C0 69.3 0 60.7 0 52C0 43.3 0 34.7 0 26C0 17.3 0 8.7 0 4.3L0 0Z" fill="#6bba76"></path><path d="M154 0L154.7 4.3C155.3 8.7 156.7 17.3 153.5 26C150.3 34.7 142.7 43.3 142.7 52C142.7 60.7 150.3 69.3 145.2 78C140 86.7 122 95.3 112.5 104C103 112.7 102 121.3 103.5 130.2C105 139 109 148 117.5 156.8C126 165.7 139 174.3 142 183C145 191.7 138 200.3 138.5 209C139 217.7 147 226.3 152.7 235C158.3 243.7 161.7 252.3 152.7 261C143.7 269.7 122.3 278.3 112.3 287C102.3 295.7 103.7 304.3 107.3 313C111 321.7 117 330.3 126.7 339C136.3 347.7 149.7 356.3 155.2 365C160.7 373.7 158.3 382.3 159.2 391C160 399.7 164 408.3 166 417C168 425.7 168 434.3 159 443.2C150 452 132 461 123.3 469.8C114.7 478.7 115.3 487.3 118 496C120.7 504.7 125.3 513.3 123.7 522C122 530.7 114 539.3 118 548C122 556.7 138 565.3 139 574C140 582.7 126 591.3 119 595.7L112 600L0 600L0 595.7C0 591.3 0 582.7 0 574C0 565.3 0 556.7 0 548C0 539.3 0 530.7 0 522C0 513.3 0 504.7 0 496C0 487.3 0 478.7 0 469.8C0 461 0 452 0 443.2C0 434.3 0 425.7 0 417C0 408.3 0 399.7 0 391C0 382.3 0 373.7 0 365C0 356.3 0 347.7 0 339C0 330.3 0 321.7 0 313C0 304.3 0 295.7 0 287C0 278.3 0 269.7 0 261C0 252.3 0 243.7 0 235C0 226.3 0 217.7 0 209C0 200.3 0 191.7 0 183C0 174.3 0 165.7 0 156.8C0 148 0 139 0 130.2C0 121.3 0 112.7 0 104C0 95.3 0 86.7 0 78C0 69.3 0 60.7 0 52C0 43.3 0 34.7 0 26C0 17.3 0 8.7 0 4.3L0 0Z" fill="#76c66b"></path><path d="M105 0L97.3 4.3C89.7 8.7 74.3 17.3 71.3 26C68.3 34.7 77.7 43.3 83 52C88.3 60.7 89.7 69.3 86.7 78C83.7 86.7 76.3 95.3 74.7 104C73 112.7 77 121.3 76 130.2C75 139 69 148 66.3 156.8C63.7 165.7 64.3 174.3 67.3 183C70.3 191.7 75.7 200.3 79.8 209C84 217.7 87 226.3 84.2 235C81.3 243.7 72.7 252.3 74.8 261C77 269.7 90 278.3 90.2 287C90.3 295.7 77.7 304.3 69.2 313C60.7 321.7 56.3 330.3 54 339C51.7 347.7 51.3 356.3 59.7 365C68 373.7 85 382.3 88.7 391C92.3 399.7 82.7 408.3 73.7 417C64.7 425.7 56.3 434.3 57.5 443.2C58.7 452 69.3 461 77.8 469.8C86.3 478.7 92.7 487.3 89.5 496C86.3 504.7 73.7 513.3 73.5 522C73.3 530.7 85.7 539.3 87.5 548C89.3 556.7 80.7 565.3 77 574C73.3 582.7 74.7 591.3 75.3 595.7L76 600L0 600L0 595.7C0 591.3 0 582.7 0 574C0 565.3 0 556.7 0 548C0 539.3 0 530.7 0 522C0 513.3 0 504.7 0 496C0 487.3 0 478.7 0 469.8C0 461 0 452 0 443.2C0 434.3 0 425.7 0 417C0 408.3 0 399.7 0 391C0 382.3 0 373.7 0 365C0 356.3 0 347.7 0 339C0 330.3 0 321.7 0 313C0 304.3 0 295.7 0 287C0 278.3 0 269.7 0 261C0 252.3 0 243.7 0 235C0 226.3 0 217.7 0 209C0 200.3 0 191.7 0 183C0 174.3 0 165.7 0 156.8C0 148 0 139 0 130.2C0 121.3 0 112.7 0 104C0 95.3 0 86.7 0 78C0 69.3 0 60.7 0 52C0 43.3 0 34.7 0 26C0 17.3 0 8.7 0 4.3L0 0Z" fill="#86d15c"></path></svg>