<svg id="visual" viewBox="0 0 900 600" width="900" height="600" xmlns="http://www.w3.org/2000/svg" xmlns:xlink="http://www.w3.org/1999/xlink" version="1.1"><path d="M0 127L25 115C50 103 100 79 150 67C200 55 250 55 300 58C350 61 400 67 450 74C500 81 550 89 600 87C650 85 700 73 750 79C800 85 850 109 875 121L900 133L900 0L875 0C850 0 800 0 750 0C700 0 650 0 600 0C550 0 500 0 450 0C400 0 350 0 300 0C250 0 200 0 150 0C100 0 50 0 25 0L0 0Z" fill="#bfd34a"></path><path d="M0 247L25 247C50 247 100 247 150 233C200 219 250 191 300 189C350 187 400 211 450 231C500 251 550 267 600 261C650 255 700 227 750 227C800 227 850 255 875 269L900 283L900 131L875 119C850 107 800 83 750 77C700 71 650 83 600 85C550 87 500 79 450 72C400 65 350 59 300 56C250 53 200 53 150 65C100 77 50 101 25 113L0 125Z" fill="#b2c82f"></path><path d="M0 361L25 352C50 343 100 325 150 299C200 273 250 239 300 242C350 245 400 285 450 308C500 331 550 337 600 322C650 307 700 271 750 273C800 275 850 315 875 335L900 355L900 281L875 267C850 253 800 225 750 225C700 225 650 253 600 259C550 265 500 249 450 229C400 209 350 185 300 187C250 189 200 217 150 231C100 245 50 245 25 245L0 245Z" fill="#a5be00"></path><path d="M0 433L25 434C50 435 100 437 150 405C200 373 250 307 300 302C350 297 400 353 450 379C500 405 550 401 600 382C650 363 700 329 750 332C800 335 850 375 875 395L900 415L900 353L875 333C850 313 800 273 750 271C700 269 650 305 600 320C550 335 500 329 450 306C400 283 350 243 300 240C250 237 200 271 150 297C100 323 50 341 25 350L0 359Z" fill="#8ea403"></path><path d="M0 601L25 601C50 601 100 601 150 601C200 601 250 601 300 601C350 601 400 601 450 601C500 601 550 601 600 601C650 601 700 601 750 601C800 601 850 601 875 601L900 601L900 413L875 393C850 373 800 333 750 330C700 327 650 361 600 380C550 399 500 403 450 377C400 351 350 295 300 300C250 305 200 371 150 403C100 435 50 433 25 432L0 431Z" fill="#788b05"></path></svg>